<svg width="1440" height="32" viewBox="0 0 1440 32" fill="none" xmlns="http://www.w3.org/2000/svg">
<g clip-path="url(#clip0_1287_331)">
<path d="M-4.0181 1.22322C-67 1.22322 -280 16 -280 16V32H1720V16C1648 16 1553 8.10776 1521.18 8.10776C1483.81 8.10776 1465.35 13.262 1428.03 14.2676C1343.43 16.5472 1300.99 2.10187 1216 1.22322C1113.77 0.166268 1061.1 14.4129 958.79 14.2676C890.843 14.1711 854.337 8.10776 786.389 8.10776C718.44 8.10776 681.238 16.815 613.987 14.2676C560.19 12.2299 537.161 4.18261 483.99 1.22322C361.935 -5.57014 292.19 18.3333 168.384 14.2676C98.8544 11.9843 65.8948 1.22322 -4.0181 1.22322Z" fill="#262626"/>
</g>
<defs>
<clipPath id="clip0_1287_331">
<rect width="1440" height="32" fill="white"/>
</clipPath>
</defs>
</svg>
