<svg width="56" height="24" viewBox="0 0 56 24" fill="none" xmlns="http://www.w3.org/2000/svg">
<g clip-path="url(#clip0_1278_1532)">
<path d="M10.6926 16.4185C9.58882 17.6325 8.19861 18.2283 6.49846 18.2283C5.83609 18.2283 5.10769 18.0515 4.33511 17.6985C3.56252 17.3455 2.98853 16.8594 2.61315 16.2417V18.0515H0.0531464V0.0839844H2.67972V8.00846C3.05511 7.39028 3.60671 6.90468 4.3793 6.5735C5.15189 6.22049 5.88028 6.04371 6.56448 6.04371C8.28644 6.04371 9.67721 6.66189 10.7362 7.89769C11.8182 9.13406 12.3474 10.5466 12.3474 12.1136C12.348 13.7701 11.7964 15.2045 10.6926 16.4185ZM2.63553 12.136C2.63553 13.1732 2.96671 14.0566 3.60671 14.785C4.26853 15.4915 5.12951 15.8445 6.16728 15.8445C7.20448 15.8445 8.06546 15.4915 8.70546 14.785C9.36784 14.0566 9.69903 13.1738 9.69903 12.136C9.69903 11.0983 9.36784 10.2155 8.70546 9.48706C8.06546 8.75867 7.20448 8.4051 6.16728 8.4051C5.12951 8.4051 4.26853 8.75811 3.60671 9.48706C2.96671 10.216 2.63553 11.0988 2.63553 12.136Z" fill="#CE7328"/>
<path d="M16.541 12.9311C16.5628 13.8139 16.9164 14.5422 17.6006 15.1386C18.2848 15.7126 19.0797 15.9996 19.9843 15.9996C21.4635 15.9996 22.5231 15.3814 23.1631 14.1674L25.0613 15.4256C24.0677 17.2578 22.1477 18.2731 20.0285 18.2731C18.2848 18.2731 16.8056 17.6992 15.614 16.5294C14.4442 15.3596 13.8478 13.8804 13.8478 12.1367C13.8478 10.4371 14.4218 9.00211 15.5474 7.80994C16.673 6.61778 18.0856 6.02197 19.7857 6.02197C21.5737 6.02197 22.9863 6.57414 24.0017 7.69973C25.0171 8.82589 25.525 10.2827 25.525 12.1143C25.525 12.4673 25.5027 12.7325 25.4808 12.9311H16.541ZM16.673 10.9445H22.8537C22.7653 9.28854 21.4629 8.27372 19.7857 8.27372C18.1746 8.27372 16.9158 9.3333 16.673 10.9445Z" fill="#CE7328"/>
<path d="M27.8635 1.23208C28.5477 0.525505 29.6073 0.525505 30.2915 1.23208C30.9757 1.91628 30.9757 2.97586 30.2915 3.66005C29.6073 4.34425 28.5477 4.34425 27.8635 3.66005C27.1793 2.97586 27.1793 1.91628 27.8635 1.23208ZM30.4017 18.0522H27.7751V6.26481H30.4017V18.0522Z" fill="#CE7328"/>
<path d="M36.273 6.26467V19.4428C36.273 22.423 34.838 23.9021 31.9905 23.9021C31.5709 23.9021 31.1737 23.8361 30.7989 23.7254V21.4294C30.9975 21.4954 31.2184 21.5178 31.4607 21.5178C33.0282 21.5178 33.624 20.9214 33.624 19.1559V6.26467H36.273ZM36.6926 2.44592C36.6926 3.3953 35.8981 4.16732 34.9264 4.16732C33.977 4.16732 33.2044 3.39474 33.2044 2.44592C33.2044 1.49655 33.977 0.702148 34.9264 0.702148C35.8976 0.702148 36.6926 1.49655 36.6926 2.44592Z" fill="#CE7328"/>
<path d="M41.2391 12.9311C41.2615 13.8139 41.6145 14.5422 42.2987 15.1386C42.9829 15.7126 43.7773 15.9996 44.6825 15.9996C46.1611 15.9996 47.2207 15.3814 47.8612 14.1674L49.7594 15.4256C48.7664 17.2578 46.8458 18.2731 44.7267 18.2731C42.9829 18.2731 41.5038 17.6992 40.3121 16.5294C39.1424 15.3596 38.546 13.8804 38.546 12.1367C38.546 10.4371 39.12 9.00211 40.2456 7.80994C41.3712 6.61778 42.7843 6.02197 44.4839 6.02197C46.2719 6.02197 47.6845 6.57414 48.6998 7.69973C49.7152 8.82589 50.2226 10.2827 50.2226 12.1143C50.2226 12.4673 50.2008 12.7325 50.1784 12.9311H41.2391ZM41.3717 10.9445H47.5524C47.464 9.28854 46.1617 8.27372 44.4839 8.27372C42.8727 8.27372 41.6145 9.3333 41.3717 10.9445Z" fill="#CE7328"/>
<path d="M55.9972 16.3849C55.9972 16.8912 55.6106 17.2644 55.2789 17.5961C54.9471 17.9279 54.574 18.2025 54.0677 18.2025C53.5614 18.2025 53.224 17.8921 52.8923 17.5603C52.5605 17.2286 52.3328 16.8912 52.3328 16.3849C52.3328 15.8786 52.2965 15.2772 52.6282 14.9455C52.96 14.6137 53.5614 14.4336 54.0677 14.4336C54.574 14.4336 55.0288 14.7603 55.3605 15.0921C55.6923 15.4238 55.9972 15.8786 55.9972 16.3849Z" fill="#F68C1E"/>
</g>
<defs>
<clipPath id="clip0_1278_1532">
<rect width="56" height="23.8322" fill="white" transform="translate(0 0.0839844)"/>
</clipPath>
</defs>
</svg>
